<svg version="1.0" xmlns="http://www.w3.org/2000/svg"
 width="128.000000pt" height="128.000000pt" viewBox="0 0 128.000000 128.000000"
 preserveAspectRatio="xMidYMid meet">
<g transform="translate(0.000000,128.000000) scale(0.100000,-0.100000)"
fill="#350F48" stroke="none">
<path d="M0 640 l0 -640 640 0 640 0 0 640 0 640 -640 0 -640 0 0 -640z m755
371 c82 -38 130 -124 129 -236 0 -80 -22 -135 -81 -204 l-36 -43 -104 104
c-129 128 -146 154 -146 223 0 128 124 209 238 156z m-104 -555 c51 -69 37
-156 -31 -191 -65 -34 -126 -12 -178 64 -59 86 -64 213 -11 300 l21 34 85 -84
c47 -46 98 -102 114 -123z"/>
</g>
</svg>
